<svg width="31" height="28" viewBox="0 0 31 28" fill="none" xmlns="http://www.w3.org/2000/svg">
<path fill-rule="evenodd" clip-rule="evenodd" d="M28.2255 10.082H20.586V6.08002C20.5928 4.61219 20.0179 3.20144 18.987 2.15652C17.9561 1.11159 16.5533 0.517592 15.0855 0.504517C13.6177 0.517592 12.2149 1.11159 11.184 2.15652C10.1532 3.20144 9.57821 4.61219 9.58501 6.08002V10.082H1.72351C1.41754 10.0827 1.11729 10.165 0.853647 10.3203C0.590007 10.4755 0.372502 10.6983 0.223514 10.9655C0.0729551 11.2342 -0.00435316 11.5378 -0.000667583 11.8458C0.00301799 12.1538 0.0875681 12.4555 0.244514 12.7205L6.89701 27.5H22.932L29.7045 12.716C29.8836 12.4484 29.9872 12.1375 30.0045 11.816C29.9932 11.3519 29.8007 10.9107 29.4682 10.5866C29.1358 10.2626 28.6898 10.0815 28.2255 10.082ZM3.44851 13.562H9.48301L10.146 17.912H5.48101L3.44851 13.562ZM8.62051 24.887L6.55201 20.537H10.5435L11.2065 24.887H8.62051ZM16.3785 24.887H13.62L12.93 20.537H17.0685L16.3785 24.887ZM17.4135 17.918H12.7635L12.0735 13.568H17.9355L17.4135 17.918ZM18 10.082H12.174V6.08002C12.1705 5.56284 12.3029 5.05382 12.558 4.60392C12.8131 4.15402 13.1819 3.77904 13.6275 3.51652C14.0708 3.25665 14.5754 3.11966 15.0893 3.11966C15.6031 3.11966 16.1077 3.25665 16.551 3.51652C16.9966 3.77904 17.3654 4.15402 17.6205 4.60392C17.8756 5.05382 18.008 5.56284 18.0045 6.08002L18 10.082ZM21.3795 24.887H18.783L19.4835 20.537H23.4495L21.3795 24.887ZM24.519 17.918H19.803L20.3445 13.568H26.385L24.519 17.918Z" fill="black"/>
</svg>
